<?xml version="1.0" encoding="UTF-8"?>
<svg width="295px" height="86px" viewBox="0 0 295 86" version="1.1" xmlns="http://www.w3.org/2000/svg" xmlns:xlink="http://www.w3.org/1999/xlink">
    <!-- Generator: Sketch 60.1 (88133) - https://sketch.com -->
    <title>Group 2</title>
    <desc>Created with Sketch.</desc>
    <g id="Page-1" stroke="none" stroke-width="1" fill="none" fill-rule="evenodd">
        <g id="Desktop-HD" transform="translate(-138.000000, -2393.000000)" fill-rule="nonzero">
            <g id="Group-2" transform="translate(138.000000, 2393.000000)">
                <path d="M2.9424,43 L2.9424,8.1296 L26.552,43 L28.7824,43 L28.7824,4.2672 L26.6064,4.2672 L26.6064,39.192 L2.9424,4.2672 L0.7664,4.2672 L0.7664,43 L2.9424,43 Z M56.5264,43.5984 C59.3008,43.5984 61.9664,43.1088 64.4688,42.0752 C66.8624,41.0416 69.0384,39.5728 70.888,37.7232 C72.7376,35.8736 74.2064,33.6976 75.24,31.2496 C76.328,28.7472 76.8176,26.136 76.8176,23.3616 C76.8176,20.6416 76.328,17.976 75.24,15.4736 C74.2064,13.08 72.7376,10.904 70.888,9 C69.0384,7.1504 66.8624,5.6816 64.4688,4.648 C61.9664,3.6144 59.3008,3.1792 56.5264,3.1792 C53.8064,3.1792 51.1408,3.6144 48.6384,4.648 C46.2448,5.6816 44.0688,7.1504 42.1648,9 C40.3152,10.904 38.8464,13.08 37.8672,15.4736 C36.7792,17.976 36.2352,20.6416 36.2352,23.3616 C36.2352,26.136 36.7792,28.7472 37.8672,31.2496 C38.8464,33.6976 40.3152,35.8736 42.2192,37.7232 C44.0688,39.5728 46.2448,41.0416 48.6384,42.0752 C51.1408,43.1088 53.8064,43.5984 56.5264,43.5984 Z M56.5264,41.5312 C46.5712,41.5312 38.4112,33.3712 38.4112,23.3616 C38.4112,13.352 46.5712,5.192 56.5264,5.192 C66.536,5.192 74.6416,13.352 74.6416,23.3616 C74.6416,33.3712 66.536,41.5312 56.5264,41.5312 Z M85.848,43 L85.848,7.9664 L100.808,28.584 L115.8224,7.9664 L115.8224,43 L117.9984,43 L117.9984,4.2672 L115.8224,4.2672 L100.808,24.8848 L85.848,4.2672 L83.672,4.2672 L83.672,43 L85.848,43 Z M127.5184,43 L132.3056,30.4336 L150.584,30.4336 L155.4256,43 L157.7648,43 L142.8592,4.2672 L140.0848,4.2672 L125.1792,43 L127.5184,43 Z M149.768,28.3664 L133.1216,28.3664 L141.4448,6.7152 L149.768,28.3664 Z M176.4784,43 C179.0896,43 181.6464,42.5104 184.04,41.4768 C186.3248,40.4976 188.392,39.0832 190.1872,37.3424 C191.9824,35.5472 193.3424,33.48 194.3216,31.1952 C195.3552,28.8016 195.8448,26.2448 195.8448,23.6336 C195.8448,21.0224 195.3552,18.4656 194.3216,16.1264 C193.3424,13.7872 191.9824,11.72 190.1872,9.9248 C188.392,8.184 186.3248,6.7696 184.04,5.7904 C181.6464,4.7568 179.0896,4.2672 176.4784,4.2672 L163.5856,4.2672 L163.5856,43 L176.4784,43 Z M176.4784,40.9328 L165.7616,40.9328 L165.7616,6.3344 L176.4784,6.3344 C186.0528,6.3344 193.7776,14.1136 193.7776,23.6336 C193.7776,33.1536 186.0528,40.9328 176.4784,40.9328 Z" id="NOMAD" fill="#222222"></path>
                <path d="M68.472,81.7072 L68.472,73.6432 C69.5728,74.5648 70.9552,75.256 72.4144,75.256 C74.0528,75.256 75.5888,74.6416 76.7408,73.4896 C77.9184,72.312 78.5584,70.776 78.5584,69.1376 C78.5584,67.4992 77.9184,65.9632 76.7408,64.7856 C75.5888,63.6336 74.0528,63.0192 72.4144,63.0192 C70.9552,63.0192 69.5728,63.7104 68.472,64.632 L68.472,63.2752 L66.2704,63.2752 L66.2704,81.7072 L68.472,81.7072 Z M72.4144,73.1056 C70.2384,73.1056 68.472,71.3136 68.472,69.1376 C68.472,66.9616 70.2384,65.1696 72.4144,65.1696 C74.5904,65.1696 76.3568,66.9616 76.3568,69.1376 C76.3568,71.3136 74.5904,73.1056 72.4144,73.1056 Z M86.3664,75.2816 C88.0048,75.2816 89.5408,74.6416 90.6928,73.4896 C91.8704,72.312 92.5104,70.776 92.5104,69.1376 C92.5104,67.4992 91.8704,65.9632 90.6928,64.7856 C89.5408,63.6336 88.0048,63.0192 86.3664,63.0192 C84.728,63.0192 83.192,63.6336 82.0144,64.7856 C80.8624,65.9632 80.2224,67.4992 80.2224,69.1376 C80.2224,70.776 80.8624,72.312 82.0144,73.4896 C83.192,74.6416 84.728,75.2816 86.3664,75.2816 Z M86.3664,73.08 C84.1904,73.08 82.424,71.3136 82.424,69.1376 C82.424,66.9616 84.1904,65.2208 86.3664,65.2208 C88.5424,65.2208 90.3088,66.9616 90.3088,69.1376 C90.3088,71.3136 88.5424,73.08 86.3664,73.08 Z M98.6288,75 L102.4176,68.3184 L106.2064,75 L108.536,75 L110.7376,63.2752 L108.5104,63.2752 L106.872,71.928 L103.6208,66.1936 L101.2144,66.1936 L97.9632,71.928 L96.3248,63.2752 L94.0976,63.2752 L96.2992,75 L98.6288,75 Z M117.8288,75.2048 C118.9296,75.1536 120.0304,74.872 120.9264,74.3344 C121.5152,73.976 122.0272,73.5408 122.488,73.0288 L120.6448,71.928 C119.9024,72.6704 118.8272,73.1056 117.7776,73.1568 C116.088,73.1312 114.6288,71.672 114.3728,69.7264 L114.3728,69.6752 L123.4096,69.6752 C123.4352,69.4448 123.4608,68.856 123.2816,67.8064 C123.0768,66.7312 122.5392,65.7584 121.8224,64.9648 C120.7728,63.8384 119.3648,63.1984 117.8288,63.1984 C116.3184,63.1984 114.8848,63.8384 113.8608,64.9648 C113.144,65.7584 112.632,66.7312 112.4016,67.8064 C112.2992,68.2672 112.248,68.728 112.248,69.1888 C112.248,69.368 112.248,69.5472 112.2736,69.7264 C112.376,71.1344 112.9392,72.4144 113.8608,73.4128 C114.8848,74.5648 116.2928,75.2048 117.8288,75.2048 Z M121.1056,67.832 L114.552,67.832 L114.5776,67.7808 C115.1152,66.2704 116.4208,65.2464 117.8288,65.2464 C119.2624,65.2464 120.568,66.2704 121.08,67.7808 L121.1056,67.832 Z M128.0688,75 L128.0688,68.7536 C128.0688,66.7824 129.7584,65.2208 131.8064,65.2208 L132.344,63.0192 C130.9872,63.0192 128.8112,63.6592 128.0688,64.4784 L128.0688,63.2752 L125.8672,63.2752 L125.8672,75 L128.0688,75 Z M138.9744,75.2048 C140.0752,75.1536 141.176,74.872 142.072,74.3344 C142.6608,73.976 143.1728,73.5408 143.6336,73.0288 L141.7904,71.928 C141.048,72.6704 139.9728,73.1056 138.9232,73.1568 C137.2336,73.1312 135.7744,71.672 135.5184,69.7264 L135.5184,69.6752 L144.5552,69.6752 C144.5808,69.4448 144.6064,68.856 144.4272,67.8064 C144.2224,66.7312 143.6848,65.7584 142.968,64.9648 C141.9184,63.8384 140.5104,63.1984 138.9744,63.1984 C137.464,63.1984 136.0304,63.8384 135.0064,64.9648 C134.2896,65.7584 133.7776,66.7312 133.5472,67.8064 C133.4448,68.2672 133.3936,68.728 133.3936,69.1888 C133.3936,69.368 133.3936,69.5472 133.4192,69.7264 C133.5216,71.1344 134.0848,72.4144 135.0064,73.4128 C136.0304,74.5648 137.4384,75.2048 138.9744,75.2048 Z M142.2512,67.832 L135.6976,67.832 L135.7232,67.7808 C136.2608,66.2704 137.5664,65.2464 138.9744,65.2464 C140.408,65.2464 141.7136,66.2704 142.2256,67.7808 L142.2512,67.832 Z M152.312,75.256 C153.7712,75.256 155.1536,74.5648 156.2544,73.6432 L156.2544,75 L158.456,75 L158.456,56.2096 L156.2544,56.2096 L156.2544,64.632 C155.1536,63.7104 153.7712,63.0192 152.312,63.0192 C150.6736,63.0192 149.1376,63.6336 147.96,64.7856 C146.808,65.9632 146.168,67.4992 146.168,69.1376 C146.168,70.776 146.808,72.312 147.96,73.4896 C149.1376,74.6416 150.6736,75.256 152.312,75.256 Z M152.312,73.1056 C150.136,73.1056 148.3696,71.3136 148.3696,69.1376 C148.3696,66.9616 150.136,65.1696 152.312,65.1696 C154.488,65.1696 156.2544,66.9616 156.2544,69.1376 C156.2544,71.3136 154.488,73.1056 152.312,73.1056 Z M173.4832,75.256 C175.1216,75.256 176.6576,74.6416 177.8096,73.4896 C178.9872,72.312 179.6272,70.776 179.6272,69.1376 C179.6272,67.4992 178.9872,65.9632 177.8096,64.7856 C176.6576,63.6336 175.1216,63.0192 173.4832,63.0192 C172.024,63.0192 170.6416,63.7104 169.5408,64.632 L169.5408,56.2096 L167.3392,56.2096 L167.3392,75 L169.5408,75 L169.5408,73.6432 C170.6416,74.5648 172.024,75.256 173.4832,75.256 Z M173.4832,73.1056 C171.3072,73.1056 169.5408,71.3136 169.5408,69.1376 C169.5408,66.9616 171.3072,65.1696 173.4832,65.1696 C175.6592,65.1696 177.4256,66.9616 177.4256,69.1376 C177.4256,71.3136 175.6592,73.1056 173.4832,73.1056 Z M185.3872,81.7072 L192.8624,63.2752 L190.4816,63.2752 L186.9232,72.0816 L183.3648,63.2752 L180.984,63.2752 L185.7456,75 L183.0064,81.7072 L185.3872,81.7072 Z" id="poweredby" fill="#222222"></path>
                <g id="zomato-logo-vector" transform="translate(209.400000, 0.600000)">
                    <path d="M2.0864973,0 L82.7135027,0 C83.8670134,0 84.8,0.932986597 84.8,2.0864973 L84.8,82.7135027 C84.8,83.8670134 83.8670134,84.8 82.7135027,84.8 L2.0864973,84.8 C0.932986597,84.8 0,83.8670134 0,82.7135027 L0,2.0864973 C0,0.932986597 0.932986597,0 2.0864973,0 Z" id="Rectangle-Copy-10" fill="#E23744"></path>
                    <g id="Group" transform="translate(5.600000, 34.400000)" fill="#FFFFFF">
                        <path d="M11.4305455,3.81276596 L11.3629091,5.97446809 L5.766,12.1021277 C8.09945455,12.1021277 9.58745455,12.0851064 10.4329091,12.0340426 C10.1792727,13.1914894 9.97636364,14.1446809 9.77345455,15.5744681 C8.65745455,15.4723404 6.89890909,15.4553191 5.14036364,15.4553191 C3.17890909,15.4553191 1.47109091,15.4723404 0.101454545,15.5744681 L0.152181818,13.3957447 L5.74909091,7.30212766 C3.29727273,7.30212766 2.40109091,7.31914894 1.38654545,7.35319149 C1.60636364,6.26382979 1.77545455,5.05531915 1.92763636,3.84680851 C3.72,3.88085106 4.43018182,3.91489362 6.72981818,3.91489362 C8.87727273,3.91489362 10.0778182,3.88085106 11.4305455,3.81276596 Z M15.4041818,10.587234 C15.4041818,12.0340426 15.8776364,12.7659574 16.6892727,12.7659574 C17.7714545,12.7659574 18.6169091,11.012766 18.6169091,8.86808511 C18.6169091,7.40425532 18.1434545,6.6893617 17.3656364,6.6893617 C16.2834545,6.6893617 15.4041818,8.42553191 15.4041818,10.587234 Z M22.7596364,8.69787234 C22.7596364,12.6297872 20.0034545,15.9148936 16.3341818,15.9148936 C13.0538182,15.9148936 11.3629091,13.6680851 11.3629091,10.7234043 C11.3629091,6.80851064 14.1529091,3.54042553 17.7883636,3.54042553 C21.1194545,3.54042553 22.7596364,5.78723404 22.7596364,8.69787234 Z M66.774,10.587234 C66.774,12.0340426 67.2474545,12.7659574 68.0590909,12.7659574 C69.1412727,12.7659574 69.9867273,11.012766 69.9867273,8.86808511 C69.9867273,7.40425532 69.5132727,6.6893617 68.7354545,6.6893617 C67.6532727,6.6893617 66.774,8.42553191 66.774,10.587234 Z M74.2647273,8.62978723 C74.2647273,12.612766 71.4578182,15.9319149 67.7547273,15.9319149 C64.4236364,15.9319149 62.7327273,13.6510638 62.7327273,10.6723404 C62.7327273,6.70638298 65.5565455,3.38723404 69.2427273,3.38723404 C72.6076364,3.38723404 74.2647273,5.66808511 74.2647273,8.62978723 Z M41.6470909,7.35319149 C41.9345455,5.32765957 41.7823636,3.50638298 39.5503636,3.50638298 C37.9270909,3.50638298 36.1854545,4.88510638 34.9510909,7.18297872 C35.2216364,5.27659574 35.0694545,3.50638298 32.8543636,3.50638298 C31.1972727,3.50638298 29.388,4.95319149 28.1536364,7.35319149 C28.4749091,5.78723404 28.4072727,4 28.3058182,3.62553191 C27.0207273,3.84680851 25.9047273,3.96595745 24.3321818,4 C24.3829091,5.0893617 24.3152727,6.51914894 24.1123636,7.86382979 L23.5881818,11.4212766 C23.3852727,12.8170213 23.1654545,14.4340426 22.9287273,15.4553191 L27.1052727,15.4553191 C27.1221818,14.8425532 27.2912727,13.8723404 27.3927273,13.0042553 L27.7478182,10.5531915 C28.0352727,8.97021277 29.3034545,7.08085106 30.2672727,7.08085106 C30.8252727,7.08085106 30.8083636,7.62553191 30.6561818,8.64680851 L30.2503636,11.4042553 C30.0474545,12.8 29.8276364,14.4170213 29.5909091,15.4382979 L33.8181818,15.4382979 C33.8350909,14.8255319 33.9703636,13.8553191 34.0887273,12.987234 L34.4438182,10.5361702 C34.7312727,8.95319149 35.9994545,7.06382979 36.9632727,7.06382979 C37.5212727,7.06382979 37.5043636,7.59148936 37.4198182,8.2893617 L36.4052727,15.4042553 L40.2605455,15.4042553 L41.6470909,7.35319149 Z M61.8196364,12.1191489 L61.3630909,14.9276596 C60.6698182,15.3021277 59.3678182,15.8468085 57.8629091,15.8468085 C55.3096364,15.8468085 54.7854545,14.4680851 55.1912727,11.5574468 L55.8507273,6.85957447 L54.5825455,6.85957447 L54.9376364,3.81276596 L56.3072727,3.74468085 L56.8314545,1.53191489 L60.7205455,0.0680851064 L60.2301818,3.74468085 L62.9018182,3.74468085 C62.8172727,4.11914894 62.496,6.21276596 62.4114545,6.85957447 L59.8074545,6.85957447 L59.2156364,11.2 C59.0634545,12.3234043 59.148,12.7148936 59.9089091,12.7148936 C60.4838182,12.7148936 61.3123636,12.3744681 61.8196364,12.1191489 Z" id="zomato-copy-10"></path>
                        <path d="M47.0918182,13.4468085 C48.5121818,13.2765957 49.476,11.8978723 49.7127273,10.5361702 L49.7465455,10.1617021 C49.1378182,10.0255319 48.2585455,9.92340426 47.4130909,10.0255319 C46.6014545,10.1276596 45.9250909,10.4680851 45.57,10.9617021 C45.2994545,11.3191489 45.1641818,11.7446809 45.2149091,12.2382979 C45.2994545,12.987234 46.128,13.5659574 47.0918182,13.4468085 Z M45.8743636,15.6255319 C43.8790909,15.8808511 42.5601818,15.0808511 42.1712727,13.2595745 C41.9176364,12.1191489 42.2727273,10.8255319 42.8645455,10.0425532 C43.6761818,9.0212766 44.9781818,8.37446809 46.5845455,8.17021277 C47.8696364,8.01702128 48.9518182,8.08510638 49.9663636,8.2893617 L50.0170909,8.11914894 C50.0509091,7.84680851 50.0678182,7.55744681 50.034,7.21702128 C49.9325455,6.36595745 49.2561818,5.83829787 47.5990909,6.04255319 C46.4830909,6.1787234 45.4009091,6.58723404 44.5723636,7.04680851 L43.7607273,4.59574468 C44.8767273,3.94893617 46.2970909,3.45531915 47.9203636,3.25106383 C51.0147273,2.85957447 53.196,3.86382979 53.4665455,6.14468085 C53.5341818,6.75744681 53.5510909,7.40425532 53.4665455,7.98297872 C53.0607273,10.8085106 52.8070909,12.9361702 52.7056364,14.3659574 C52.6887273,14.587234 52.6887273,14.9617021 52.7056364,15.506383 L48.8672727,15.506383 C48.9518182,15.2851064 49.0194545,14.9787234 49.0870909,14.6042553 C49.1378182,14.3489362 49.1547273,14.0425532 49.1885455,13.6510638 C48.3938182,14.7744681 47.2778182,15.4553191 45.8743636,15.6255319 Z" id="a-copy-7"></path>
                    </g>
                </g>
            </g>
        </g>
    </g>
</svg>